<?xml version="1.0" encoding="utf-8"?>
<?xml-stylesheet type="text/xsl" href="rss1.xsl"?>
<rss version="2.0" xmlns:atom="http://www.w3.org/2005/Atom" xmlns:content="http://purl.org/rss/1.0/modules/content/" xmlns:dc="http://purl.org/dc/elements/1.1/" xmlns:media="http://search.yahoo.com/mrss/">
<channel>
 <title>Getty</title>
 <link>http://www.gettyimg.com/</link>
 <atom:link href="http://www.gettyimg.com/" rel="self" type="application/rss+xml" />

 
                <item>
                <title><![CDATA[【HD Live Performances】WEB-RiP - Chvrches - Southside Festival 2023]]></title>
                <link><![CDATA[https://sharemania.us/threads/chvrches-southside-festival-2023.222905/]]></link>
                <description><![CDATA[<article>
<blockquote class="messageText SelectQuoteContainer ugc baseHtml">
<img src="https://i.imgur.com/d6IIpGI.jpeg" class="bbCodeImage LbImage" alt="[​IMG]" data-url="https://i.imgur.com/d6IIpGI.jpeg" style=""> <br>
<div class="bbCodeBlock bbCodeCode">
<div class="type">Code:</div>
<pre>General
Unique ID                      : 112760855755161108742084419438288025559 (0x54D4F36BE985C30FFC2E525777A3B7D7)
Complete name                  : Chvrches - Southside Festival 2023.mkv
Format                         : Matroska
Format version                 : Version 4 / Version 2
File size                      : 1.43 GiB
Duration                       : 1 h 8 min
Overall bit rate               : 2 986 kb/s
Writing application            : mkvmerge v63.0.0 ('Everything') 64-bit
Writing library                : libebml v1.4.2 + libmatroska v1.6.4 / Lavf59.4.100

Video
ID                             : 1
Format                         : VP9
Codec ID                       : V_VP9
Duration                       : 1 h 8 min
Bit rate                       : 2 856 kb/s
Width                          : 1 920 pixels
Height                         : 1 080 pixels
Display aspect ratio           : 16:9
Frame rate mode                : Constant
Frame rate                     : 30.000 FPS
Bits/(Pixel*Frame)             : 0.046
Stream size                    : 1.37 GiB (96%)
Language                       : English
Default                        : Yes
Forced                         : No

Audio
ID                             : 2
Format                         : AAC
Format/Info                    : Advanced Audio Codec
Format profile                 : LC
Codec ID                       : A_AAC
Duration                       : 1 h 8 min
Bit rate                       : 128 kb/s
Channel(s)                     : 2 channels
Channel positions              : Front: L R
Sampling rate                  : 44.1 kHz
Frame rate                     : 43.066 FPS (1024 SPF)
Compression mode               : Lossy
Stream size                    : 62.7 MiB (4%)
Default                        : Yes
Forced                         : No

</pre>
</div>
<div class="bbCodeBlock bbCodeVfcHH HiddenContent">
<div class="attribution type">Hidden Content:</div>
<blockquote>You must either reply or click 'Like' to see the hidden information contained here.</blockquote>
</div>
<div class="messageTextEndMarker">&nbsp;</div>
</blockquote>
</article>]]></description>
                <author><![CDATA[MarkHorax]]></author>
                </item>

                </channel></rss>